<svg version="1.1" viewBox="0.0 0.0 128.0 128.0" fill="none" stroke="none" stroke-linecap="square" stroke-miterlimit="10" xmlns:xlink="http://www.w3.org/1999/xlink" xmlns="http://www.w3.org/2000/svg"><clipPath id="p.0"><path d="m0 0l128.0 0l0 128.0l-128.0 0l0 -128.0z" clip-rule="nonzero"/></clipPath><g clip-path="url(#p.0)"><path fill="#000000" fill-opacity="0.0" d="m0 0l128.0 0l0 128.0l-128.0 0z" fill-rule="evenodd"/><path fill="#0b5394" d="m0 21.33376l0 0c0 -11.78231 9.55145 -21.33376 21.33376 -21.33376l85.33247 0l0 0c5.658066 0 11.084396 2.2476575 15.085251 6.2485137c4.0008545 4.000856 6.2485123 9.427181 6.2485123 15.085245l0 85.33247c0 11.7823105 -9.551453 21.333763 -21.333763 21.333763l-85.33247 0c-11.78231 0 -21.33376 -9.551453 -21.33376 -21.333763z" fill-rule="evenodd"/><path fill="#ffffff" d="m21.681643 59.199997l-2.984375 0l0 -14.28125l8.1875 0l0 2.484375l-5.203125 0l0 3.6875l4.84375 0l0 2.46875l-4.84375 0l0 5.640625zm13.851561 -11.125q0.21875 0 0.515625 0.03125q0.3125 0.015625 0.484375 0.0625l-0.21875 2.78125q-0.140625 -0.046875 -0.421875 -0.0625q-0.265625 -0.03125 -0.453125 -0.03125q-0.578125 0 -1.125 0.15625q-0.53125 0.140625 -0.96875 0.46875q-0.421875 0.328125 -0.671875 0.859375q-0.25 0.53125 -0.25 1.296875l0 5.5625l-2.984373 0l0 -10.921875l2.25 0l0.4531231 1.84375l0.140625 0q0.328125 -0.5625 0.796875 -1.015625q0.484375 -0.46875 1.109375 -0.75q0.625 -0.28125 1.34375 -0.28125zm7.4882812 0q1.515625 0 2.609375 0.578125q1.09375 0.578125 1.6875 1.6875q0.59375 1.109375 0.59375 2.703125l0 1.4375l-7.03125 0q0.046875 1.265625 0.75 1.984375q0.703125 0.71875 1.96875 0.71875q1.046875 0 1.90625 -0.21875q0.875 -0.21875 1.796875 -0.640625l0 2.296875q-0.8125 0.40625 -1.703125 0.59375q-0.875 0.1875 -2.140625 0.1875q-1.640625 0 -2.90625 -0.609375q-1.265625 -0.609375 -1.984375 -1.84375q-0.703125 -1.25 -0.703125 -3.125q0 -1.921875 0.640625 -3.1875q0.65625 -1.28125 1.8125 -1.921875q1.15625 -0.640625 2.703125 -0.640625zm0.015625 2.125q-0.859375 0 -1.4375 0.5625q-0.5625 0.546875 -0.65625 1.734375l4.1875 0q-0.015625 -0.65625 -0.25 -1.171875q-0.21875 -0.53125 -0.6875 -0.828125q-0.453125 -0.296875 -1.15625 -0.296875zm10.753906 9.203125q-1.828125 0 -2.96875 -1.4375q-1.140625 -1.4375 -1.140625 -4.203125q0 -2.8125 1.15625 -4.25q1.15625 -1.4375 3.03125 -1.4375q0.78125 0 1.375 0.21875q0.609375 0.21875 1.03125 0.578125q0.4375 0.359375 0.75 0.8125l0.09375 0q-0.0625 -0.3125 -0.15625 -0.921875q-0.078125 -0.625 -0.078125 -1.265625l0 -3.5l3.0 0l0 15.203125l-2.296875 0l-0.5625 -1.421875l-0.140625 0q-0.28125 0.453125 -0.703125 0.828125q-0.421875 0.359375 -1.015625 0.578125q-0.578125 0.21875 -1.375 0.21875zm1.046875 -2.375q1.21875 0 1.71875 -0.734375q0.515625 -0.734375 0.546875 -2.1875l0 -0.328125q0 -1.59375 -0.5 -2.4375q-0.484375 -0.84375 -1.8125 -0.84375q-0.984375 0 -1.546875 0.859375q-0.546875 0.84375 -0.546875 2.4375q0 1.609375 0.5625 2.421875q0.5625 0.8125 1.578125 0.8125zm12.65625 -8.953125q1.515625 0 2.609375 0.578125q1.09375 0.578125 1.6875 1.6875q0.59375 1.109375 0.59375 2.703125l0 1.4375l-7.03125 0q0.046875 1.265625 0.75 1.984375q0.703125 0.71875 1.96875 0.71875q1.046875 0 1.90625 -0.21875q0.875 -0.21875 1.796875 -0.640625l0 2.296875q-0.8125 0.40625 -1.703125 0.59375q-0.875 0.1875 -2.140625 0.1875q-1.640625 0 -2.90625 -0.609375q-1.265625 -0.609375 -1.984375 -1.84375q-0.703125 -1.25 -0.703125 -3.125q0 -1.921875 0.640625 -3.1875q0.65625 -1.28125 1.8125 -1.921875q1.15625 -0.640625 2.703125 -0.640625zm0.015625 2.125q-0.859375 0 -1.4375 0.5625q-0.5625 0.546875 -0.65625 1.734375l4.1875 0q-0.015625 -0.65625 -0.25 -1.171875q-0.21875 -0.53125 -0.6875 -0.828125q-0.453125 -0.296875 -1.15625 -0.296875zm13.394531 -2.125q0.21875 0 0.515625 0.03125q0.3125 0.015625 0.484375 0.0625l-0.21875 2.78125q-0.140625 -0.046875 -0.421875 -0.0625q-0.265625 -0.03125 -0.453125 -0.03125q-0.578125 0 -1.125 0.15625q-0.53125 0.140625 -0.96875 0.46875q-0.421875 0.328125 -0.671875 0.859375q-0.25 0.53125 -0.25 1.296875l0 5.5625l-2.984375 0l0 -10.921875l2.25 0l0.453125 1.84375l0.140625 0q0.328125 -0.5625 0.796875 -1.015625q0.484375 -0.46875 1.109375 -0.75q0.625 -0.28125 1.34375 -0.28125zm5.9726562 0.203125l0 10.921875l-2.984375 0l0 -10.921875l2.984375 0zm-1.484375 -4.28125q0.65625 0 1.125 0.3125q0.484375 0.3125 0.484375 1.15625q0 0.828125 -0.484375 1.140625q-0.46875 0.3125 -1.125 0.3125q-0.671875 0 -1.15625 -0.3125q-0.46875 -0.3125 -0.46875 -1.140625q0 -0.84375 0.46875 -1.15625q0.484375 -0.3125 1.15625 -0.3125zm9.041016 15.40625q-1.625 0 -2.765625 -0.59375q-1.140625 -0.59375 -1.734375 -1.828125q-0.59375 -1.25 -0.59375 -3.1875q0 -2.0 0.671875 -3.265625q0.671875 -1.265625 1.875 -1.859375q1.21875 -0.59375 2.8125 -0.59375q1.125 0 1.953125 0.21875q0.828125 0.21875 1.4375 0.53125l-0.875 2.296875q-0.703125 -0.28125 -1.3125 -0.453125q-0.609375 -0.1875 -1.203125 -0.1875q-0.78125 0 -1.3125 0.375q-0.515625 0.359375 -0.765625 1.09375q-0.25 0.71875 -0.25 1.828125q0 1.078125 0.265625 1.796875q0.28125 0.71875 0.796875 1.0625q0.515625 0.34375 1.265625 0.34375q0.921875 0 1.640625 -0.25q0.734375 -0.25 1.40625 -0.703125l0 2.5625q-0.671875 0.421875 -1.421875 0.609375q-0.75 0.203125 -1.890625 0.203125zm15.767578 -5.6875q0 1.375 -0.375 2.4375q-0.359375 1.046875 -1.0625 1.78125q-0.6875 0.71875 -1.671875 1.09375q-0.984375 0.375 -2.21875 0.375q-1.140625 0 -2.109375 -0.375q-0.953125 -0.375 -1.671875 -1.09375q-0.703125 -0.734375 -1.09375 -1.78125q-0.375 -1.0625 -0.375 -2.4375q0 -1.8125 0.640625 -3.0625q0.640625 -1.265625 1.828125 -1.921875q1.203125 -0.65625 2.84375 -0.65625q1.53125 0 2.71875 0.65625q1.1875 0.65625 1.859375 1.921875q0.6875 1.25 0.6875 3.0625zm-7.546875 0q0 1.078125 0.234375 1.8125q0.234375 0.734375 0.734375 1.109375q0.5 0.359375 1.296875 0.359375q0.796875 0 1.28125 -0.359375q0.5 -0.375 0.71875 -1.109375q0.234375 -0.734375 0.234375 -1.8125q0 -1.078125 -0.234375 -1.796875q-0.21875 -0.71875 -0.71875 -1.078125q-0.5 -0.359375 -1.296875 -0.359375q-1.1875 0 -1.71875 0.8125q-0.53125 0.8125 -0.53125 2.421875z" fill-rule="nonzero"/><path fill="#ffffff" d="m34.089844 68.91875q2.765625 0 4.03125 1.1875q1.265625 1.1875 1.265625 3.265625q0 0.9375 -0.28125 1.796875q-0.28125 0.859375 -0.921875 1.53125q-0.640625 0.65625 -1.703125 1.046875q-1.0625 0.375 -2.625 0.375l-1.296875 0l0 5.078125l-3.031248 0l0 -14.28125l4.562498 0zm-0.15625 2.484375l-1.375 0l0 4.234375l1.0 0q0.84375 0 1.46875 -0.21875q0.625 -0.234375 0.96875 -0.703125q0.34375 -0.484375 0.34375 -1.234375q0 -1.046875 -0.59375 -1.5625q-0.578125 -0.515625 -1.8125 -0.515625zm12.417969 0.671875q1.515625 0 2.609375 0.578125q1.09375 0.578125 1.6875 1.6875q0.59375 1.109375 0.59375 2.703125l0 1.4375l-7.03125 0q0.046875 1.265625 0.75 1.984375q0.703125 0.71875 1.96875 0.71875q1.046875 0 1.90625 -0.21875q0.875 -0.21875 1.796875 -0.640625l0 2.296875q-0.8125 0.40625 -1.703125 0.59375q-0.875 0.1875 -2.140625 0.1875q-1.640625 0 -2.90625 -0.609375q-1.265625 -0.609375 -1.984375 -1.84375q-0.703125 -1.25 -0.703125 -3.125q0 -1.921875 0.640625 -3.1875q0.65625 -1.28125 1.8125 -1.921875q1.15625 -0.640625 2.703125 -0.640625zm0.015625 2.125q-0.859375 0 -1.4375 0.5625q-0.5625 0.546875 -0.65625 1.734375l4.1875 0q-0.015625 -0.65625 -0.25 -1.171875q-0.21875 -0.53125 -0.6875 -0.828125q-0.453125 -0.296875 -1.15625 -0.296875zm13.394531 -2.125q0.21875 0 0.515625 0.03125q0.3125 0.015625 0.484375 0.0625l-0.21875 2.78125q-0.140625 -0.046875 -0.421875 -0.0625q-0.265625 -0.03125 -0.453125 -0.03125q-0.578125 0 -1.125 0.15625q-0.53125 0.140625 -0.96875 0.46875q-0.421875 0.328125 -0.671875 0.859375q-0.25 0.53125 -0.25 1.296875l0 5.5625l-2.984375 0l0 -10.921875l2.25 0l0.453125 1.84375l0.140625 0q0.328125 -0.5625 0.796875 -1.015625q0.484375 -0.46875 1.109375 -0.75q0.625 -0.28125 1.34375 -0.28125zm7.4882812 0q1.515625 0 2.609375 0.578125q1.09375 0.578125 1.6875 1.6875q0.59375 1.109375 0.59375 2.703125l0 1.4375l-7.03125 0q0.046875 1.265625 0.75 1.984375q0.703125 0.71875 1.96875 0.71875q1.046875 0 1.90625 -0.21875q0.875 -0.21875 1.796875 -0.640625l0 2.296875q-0.8125 0.40625 -1.703125 0.59375q-0.875 0.1875 -2.140625 0.1875q-1.640625 0 -2.90625 -0.609375q-1.265625 -0.609375 -1.984375 -1.84375q-0.703125 -1.25 -0.703125 -3.125q0 -1.921875 0.640625 -3.1875q0.65625 -1.28125 1.8125 -1.921875q1.15625 -0.640625 2.703125 -0.640625zm0.015625 2.125q-0.859375 0 -1.4375 0.5625q-0.5625 0.546875 -0.65625 1.734375l4.1875 0q-0.015625 -0.65625 -0.25 -1.171875q-0.21875 -0.53125 -0.6875 -0.828125q-0.453125 -0.296875 -1.15625 -0.296875zm10.285156 -1.921875l0 10.921875l-2.984375 0l0 -10.921875l2.984375 0zm-1.484375 -4.28125q0.65625 0 1.125 0.3125q0.484375 0.3125 0.484375 1.15625q0 0.828125 -0.484375 1.140625q-0.46875 0.3125 -1.125 0.3125q-0.671875 0 -1.15625 -0.3125q-0.46875 -0.3125 -0.46875 -1.140625q0 -0.84375 0.46875 -1.15625q0.484375 -0.3125 1.15625 -0.3125zm10.697266 4.078125q0.21875 0 0.515625 0.03125q0.3125 0.015625 0.484375 0.0625l-0.21875 2.78125q-0.140625 -0.046875 -0.421875 -0.0625q-0.265625 -0.03125 -0.453125 -0.03125q-0.578125 0 -1.125 0.15625q-0.53125 0.140625 -0.96875 0.46875q-0.421875 0.328125 -0.671875 0.859375q-0.25 0.53125 -0.25 1.296875l0 5.5625l-2.984375 0l0 -10.921875l2.25 0l0.453125 1.84375l0.140625 0q0.328125 -0.5625 0.796875 -1.015625q0.484375 -0.46875 1.109375 -0.75q0.625 -0.28125 1.34375 -0.28125zm7.4570312 -0.015625q2.203125 0 3.375 0.953125q1.171875 0.953125 1.171875 2.90625l0 7.28125l-2.078125 0l-0.578125 -1.484375l-0.078125 0q-0.46875 0.578125 -0.96875 0.953125q-0.484375 0.375 -1.125 0.546875q-0.625 0.1875 -1.53125 0.1875q-0.96875 0 -1.734375 -0.375q-0.765625 -0.375 -1.203125 -1.140625q-0.4375 -0.765625 -0.4375 -1.953125q0 -1.734375 1.21875 -2.5625q1.21875 -0.828125 3.65625 -0.90625l1.90625 -0.0625l0 -0.484375q0 -0.859375 -0.453125 -1.25q-0.453125 -0.40625 -1.25 -0.40625q-0.796875 0 -1.5625 0.234375q-0.75 0.21875 -1.515625 0.5625l-0.984375 -2.015625q0.859375 -0.453125 1.9375 -0.71875q1.09375 -0.265625 2.234375 -0.265625zm1.59375 6.078125l-1.15625 0.046875q-1.453125 0.03125 -2.015625 0.515625q-0.5625 0.46875 -0.5625 1.25q0 0.6875 0.40625 0.984375q0.40625 0.28125 1.046875 0.28125q0.953125 0 1.609375 -0.5625q0.671875 -0.5625 0.671875 -1.609375l0 -0.90625z" fill-rule="nonzero"/></g></svg>