<?xml version="1.0" encoding="utf-8"?>
<svg viewBox="0 0 720 1280" xmlns="http://www.w3.org/2000/svg" xmlns:bx="https://boxy-svg.com">
  <rect width="720" height="1280" style="stroke: rgb(0, 0, 0); stroke-width: 0px; fill: rgb(0, 80, 128);">
    <title>Fundo</title>
  </rect>
  <g transform="matrix(1, 0, 0, 1, 0, 225.252991)">
    <title>Texto</title>
    <path d="M 111.84 583.594 L 136.506 583.594 L 136.506 592.071 L 121.164 592.071 L 121.164 608.6 L 133.2 608.6 L 133.2 617.077 L 121.164 617.077 L 121.164 642.929 L 111.84 642.929 L 111.84 583.594 Z" style="text-transform: uppercase; white-space: pre; fill: rgb(255, 255, 255);"/>
    <path d="M 140.979 583.594 L 154.795 583.594 C 159.599 583.594 163.102 584.71 165.307 586.942 C 167.51 589.174 168.612 592.608 168.612 597.242 L 168.612 600.886 C 168.612 607.046 166.578 610.945 162.509 612.584 L 162.509 612.753 C 164.77 613.432 166.366 614.816 167.299 616.907 C 168.23 618.998 168.697 621.795 168.697 625.299 L 168.697 635.725 C 168.697 637.42 168.754 638.79 168.867 639.836 C 168.979 640.881 169.262 641.912 169.713 642.929 L 160.221 642.929 C 159.882 641.969 159.655 641.066 159.542 640.217 C 159.43 639.37 159.373 637.844 159.373 635.64 L 159.373 624.79 C 159.373 622.078 158.935 620.185 158.059 619.111 C 157.182 618.038 155.671 617.501 153.523 617.501 L 150.303 617.501 L 150.303 642.929 L 140.979 642.929 L 140.979 583.594 Z M 153.693 609.024 C 155.558 609.024 156.957 608.544 157.889 607.583 C 158.823 606.623 159.288 605.012 159.288 602.751 L 159.288 598.174 C 159.288 596.026 158.906 594.472 158.143 593.513 C 157.381 592.551 156.18 592.071 154.541 592.071 L 150.303 592.071 L 150.303 609.024 L 153.693 609.024 Z" style="text-transform: uppercase; white-space: pre; fill: rgb(255, 255, 255);"/>
    <path d="M 175.142 583.594 L 200.571 583.594 L 200.571 592.071 L 184.466 592.071 L 184.466 607.752 L 197.266 607.752 L 197.266 616.229 L 184.466 616.229 L 184.466 634.453 L 200.571 634.453 L 200.571 642.929 L 175.142 642.929 L 175.142 583.594 Z" style="text-transform: uppercase; white-space: pre; fill: rgb(255, 255, 255);"/>
    <path d="M 205.914 583.594 L 220.154 583.594 C 224.788 583.594 228.265 584.837 230.58 587.323 C 232.898 589.81 234.055 593.455 234.055 598.259 L 234.055 628.266 C 234.055 633.07 232.898 636.714 230.58 639.2 C 228.265 641.687 224.788 642.929 220.154 642.929 L 205.914 642.929 L 205.914 583.594 Z M 219.985 634.453 C 221.511 634.453 222.682 634.002 223.502 633.098 C 224.323 632.193 224.732 630.724 224.732 628.689 L 224.732 597.835 C 224.732 595.8 224.323 594.331 223.502 593.427 C 222.682 592.524 221.511 592.071 219.985 592.071 L 215.238 592.071 L 215.238 634.453 L 219.985 634.453 Z" style="text-transform: uppercase; white-space: pre; fill: rgb(255, 255, 255);"/>
    <path d="M 240.312 583.594 L 265.74 583.594 L 265.74 592.071 L 249.636 592.071 L 249.636 607.752 L 262.435 607.752 L 262.435 616.229 L 249.636 616.229 L 249.636 634.453 L 265.74 634.453 L 265.74 642.929 L 240.312 642.929 L 240.312 583.594 Z" style="text-transform: uppercase; white-space: pre; fill: rgb(255, 255, 255);"/>
    <path d="M 271.086 583.594 L 284.903 583.594 C 289.706 583.594 293.209 584.71 295.414 586.942 C 297.617 589.174 298.719 592.608 298.719 597.242 L 298.719 600.886 C 298.719 607.046 296.685 610.945 292.616 612.584 L 292.616 612.753 C 294.877 613.432 296.473 614.816 297.405 616.907 C 298.339 618.998 298.804 621.795 298.804 625.299 L 298.804 635.725 C 298.804 637.42 298.861 638.79 298.974 639.836 C 299.086 640.881 299.369 641.912 299.821 642.929 L 290.328 642.929 C 289.989 641.969 289.763 641.066 289.649 640.217 C 289.536 639.37 289.48 637.844 289.48 635.64 L 289.48 624.79 C 289.48 622.078 289.042 620.185 288.165 619.111 C 287.291 618.038 285.779 617.501 283.631 617.501 L 280.41 617.501 L 280.41 642.929 L 271.086 642.929 L 271.086 583.594 Z M 283.8 609.024 C 285.665 609.024 287.064 608.544 287.996 607.583 C 288.929 606.623 289.395 605.012 289.395 602.751 L 289.395 598.174 C 289.395 596.026 289.014 594.472 288.251 593.513 C 287.488 592.551 286.288 592.071 284.648 592.071 L 280.41 592.071 L 280.41 609.024 L 283.8 609.024 Z" style="text-transform: uppercase; white-space: pre; fill: rgb(255, 255, 255);"/>
    <path d="M 305.249 583.594 L 314.573 583.594 L 314.573 642.929 L 305.249 642.929 L 305.249 583.594 Z" style="text-transform: uppercase; white-space: pre; fill: rgb(255, 255, 255);"/>
    <path d="M 334.669 643.778 C 330.205 643.778 326.802 642.507 324.456 639.963 C 322.11 637.42 320.938 633.832 320.938 629.198 L 320.938 597.326 C 320.938 592.693 322.11 589.104 324.456 586.561 C 326.802 584.019 330.205 582.747 334.669 582.747 C 339.134 582.747 342.538 584.019 344.884 586.561 C 347.229 589.104 348.401 592.693 348.401 597.326 L 348.401 603.599 L 339.586 603.599 L 339.586 596.733 C 339.586 593.06 338.032 591.224 334.924 591.224 C 331.816 591.224 330.262 593.06 330.262 596.733 L 330.262 629.876 C 330.262 633.493 331.816 635.301 334.924 635.301 C 338.032 635.301 339.586 633.493 339.586 629.876 L 339.586 620.806 L 348.401 620.806 L 348.401 629.198 C 348.401 633.832 347.229 637.42 344.884 639.963 C 342.538 642.507 339.134 643.778 334.669 643.778 Z" style="text-transform: uppercase; white-space: pre; fill: rgb(255, 255, 255);"/>
    <path d="M 367.653 643.778 C 363.076 643.778 359.573 642.477 357.142 639.878 C 354.712 637.279 353.498 633.607 353.498 628.859 L 353.498 597.666 C 353.498 592.918 354.712 589.246 357.142 586.646 C 359.573 584.047 363.076 582.747 367.653 582.747 C 372.23 582.747 375.734 584.047 378.164 586.646 C 380.594 589.246 381.809 592.918 381.809 597.666 L 381.809 628.859 C 381.809 633.607 380.594 637.279 378.164 639.878 C 375.734 642.477 372.23 643.778 367.653 643.778 Z M 367.653 635.301 C 370.874 635.301 372.485 633.352 372.485 629.452 L 372.485 597.072 C 372.485 593.173 370.874 591.224 367.653 591.224 C 364.432 591.224 362.823 593.173 362.823 597.072 L 362.823 629.452 C 362.823 633.352 364.432 635.301 367.653 635.301 Z" style="text-transform: uppercase; white-space: pre; fill: rgb(255, 255, 255);"/>
    <path d="M 401.622 583.594 L 415.353 583.594 C 419.988 583.594 423.463 584.837 425.781 587.323 C 428.096 589.81 429.256 593.455 429.256 598.259 L 429.256 604.108 C 429.256 608.911 428.096 612.556 425.781 615.042 C 423.463 617.529 419.988 618.772 415.353 618.772 L 410.946 618.772 L 410.946 642.929 L 401.622 642.929 L 401.622 583.594 Z M 415.353 610.295 C 416.879 610.295 418.023 609.871 418.787 609.024 C 419.549 608.177 419.931 606.735 419.931 604.701 L 419.931 597.666 C 419.931 595.631 419.549 594.19 418.787 593.342 C 418.023 592.496 416.879 592.071 415.353 592.071 L 410.946 592.071 L 410.946 610.295 L 415.353 610.295 Z" style="text-transform: uppercase; white-space: pre; fill: rgb(255, 255, 255);"/>
    <path d="M 434.344 583.594 L 459.773 583.594 L 459.773 592.071 L 443.668 592.071 L 443.668 607.752 L 456.468 607.752 L 456.468 616.229 L 443.668 616.229 L 443.668 634.453 L 459.773 634.453 L 459.773 642.929 L 434.344 642.929 L 434.344 583.594 Z" style="text-transform: uppercase; white-space: pre; fill: rgb(255, 255, 255);"/>
    <path d="M 465.118 583.594 L 478.935 583.594 C 483.738 583.594 487.242 584.71 489.446 586.942 C 491.649 589.174 492.752 592.608 492.752 597.242 L 492.752 600.886 C 492.752 607.046 490.717 610.945 486.648 612.584 L 486.648 612.753 C 488.909 613.432 490.505 614.816 491.438 616.907 C 492.371 618.998 492.837 621.795 492.837 625.299 L 492.837 635.725 C 492.837 637.42 492.893 638.79 493.006 639.836 C 493.118 640.881 493.401 641.912 493.855 642.929 L 484.361 642.929 C 484.021 641.969 483.796 641.066 483.681 640.217 C 483.569 639.37 483.512 637.844 483.512 635.64 L 483.512 624.79 C 483.512 622.078 483.074 620.185 482.198 619.111 C 481.323 618.038 479.812 617.501 477.664 617.501 L 474.442 617.501 L 474.442 642.929 L 465.118 642.929 L 465.118 583.594 Z M 477.834 609.024 C 479.697 609.024 481.096 608.544 482.028 607.583 C 482.962 606.623 483.427 605.012 483.427 602.751 L 483.427 598.174 C 483.427 596.026 483.046 594.472 482.283 593.513 C 481.521 592.551 480.32 592.071 478.68 592.071 L 474.442 592.071 L 474.442 609.024 L 477.834 609.024 Z" style="text-transform: uppercase; white-space: pre; fill: rgb(255, 255, 255);"/>
    <path d="M 499.282 583.594 L 524.711 583.594 L 524.711 592.071 L 508.605 592.071 L 508.605 607.752 L 521.405 607.752 L 521.405 616.229 L 508.605 616.229 L 508.605 634.453 L 524.711 634.453 L 524.711 642.929 L 499.282 642.929 L 499.282 583.594 Z" style="text-transform: uppercase; white-space: pre; fill: rgb(255, 255, 255);"/>
    <path d="M 530.055 583.594 L 539.381 583.594 L 539.381 642.929 L 530.055 642.929 L 530.055 583.594 Z" style="text-transform: uppercase; white-space: pre; fill: rgb(255, 255, 255);"/>
    <path d="M 546.339 583.594 L 560.155 583.594 C 564.958 583.594 568.462 584.71 570.665 586.942 C 572.871 589.174 573.972 592.608 573.972 597.242 L 573.972 600.886 C 573.972 607.046 571.937 610.945 567.869 612.584 L 567.869 612.753 C 570.129 613.432 571.726 614.816 572.658 616.907 C 573.59 618.998 574.057 621.795 574.057 625.299 L 574.057 635.725 C 574.057 637.42 574.113 638.79 574.226 639.836 C 574.34 640.881 574.622 641.912 575.074 642.929 L 565.58 642.929 C 565.24 641.969 565.015 641.066 564.903 640.217 C 564.789 639.37 564.732 637.844 564.732 635.64 L 564.732 624.79 C 564.732 622.078 564.296 620.185 563.419 619.111 C 562.543 618.038 561.031 617.501 558.884 617.501 L 555.663 617.501 L 555.663 642.929 L 546.339 642.929 L 546.339 583.594 Z M 559.053 609.024 C 560.919 609.024 562.316 608.544 563.25 607.583 C 564.181 606.623 564.648 605.012 564.648 602.751 L 564.648 598.174 C 564.648 596.026 564.267 594.472 563.504 593.513 C 562.74 592.551 561.539 592.071 559.901 592.071 L 555.663 592.071 L 555.663 609.024 L 559.053 609.024 Z" style="text-transform: uppercase; white-space: pre; fill: rgb(255, 255, 255);"/>
    <path d="M 587.706 583.594 L 600.336 583.594 L 610 642.929 L 600.675 642.929 L 598.98 631.148 L 598.98 631.317 L 588.384 631.317 L 586.689 642.929 L 578.043 642.929 L 587.706 583.594 Z M 597.878 623.264 L 593.724 593.936 L 593.555 593.936 L 589.486 623.264 L 597.878 623.264 Z" style="text-transform: uppercase; white-space: pre; fill: rgb(255, 255, 255);"/>
    <path d="M 110 668.931 L 116.701 668.931 C 118.882 668.931 120.517 669.517 121.607 670.685 C 122.697 671.855 123.243 673.571 123.243 675.831 L 123.243 689.952 C 123.243 692.213 122.697 693.928 121.607 695.098 C 120.517 696.268 118.882 696.853 116.701 696.853 L 110 696.853 L 110 668.931 Z M 116.621 692.864 C 117.34 692.864 117.892 692.652 118.277 692.226 C 118.661 691.8 118.856 691.109 118.856 690.152 L 118.856 675.632 C 118.856 674.674 118.661 673.982 118.277 673.559 C 117.892 673.132 117.34 672.92 116.621 672.92 L 114.388 672.92 L 114.388 692.864 L 116.621 692.864 Z" style="text-transform: uppercase; white-space: pre; fill: rgb(255, 255, 255);"/>
    <path d="M 133.138 668.931 L 145.105 668.931 L 145.105 672.92 L 137.526 672.92 L 137.526 680.299 L 143.549 680.299 L 143.549 684.288 L 137.526 684.288 L 137.526 692.864 L 145.105 692.864 L 145.105 696.853 L 133.138 696.853 L 133.138 668.931 Z" style="text-transform: uppercase; white-space: pre; fill: rgb(255, 255, 255);"/>
    <path d="M 160.385 697.252 C 158.259 697.252 156.648 696.647 155.558 695.437 C 154.468 694.227 153.924 692.492 153.924 690.231 L 153.924 688.636 L 158.071 688.636 L 158.071 690.551 C 158.071 692.359 158.83 693.263 160.346 693.263 C 161.09 693.263 161.654 693.044 162.041 692.605 C 162.426 692.166 162.618 691.454 162.618 690.47 C 162.618 689.301 162.353 688.27 161.821 687.379 C 161.289 686.489 160.305 685.418 158.869 684.168 C 157.06 682.573 155.798 681.13 155.08 679.841 C 154.362 678.551 154.002 677.095 154.002 675.473 C 154.002 673.266 154.56 671.557 155.677 670.347 C 156.795 669.137 158.417 668.533 160.544 668.533 C 162.645 668.533 164.234 669.137 165.312 670.347 C 166.389 671.557 166.927 673.291 166.927 675.552 L 166.927 676.709 L 162.778 676.709 L 162.778 675.273 C 162.778 674.316 162.592 673.618 162.219 673.179 C 161.848 672.74 161.303 672.522 160.584 672.522 C 159.122 672.522 158.39 673.411 158.39 675.193 C 158.39 676.204 158.663 677.148 159.208 678.025 C 159.754 678.902 160.744 679.966 162.18 681.216 C 164.015 682.812 165.278 684.262 165.969 685.565 C 166.66 686.868 167.006 688.396 167.006 690.152 C 167.006 692.438 166.442 694.194 165.312 695.417 C 164.181 696.641 162.539 697.252 160.385 697.252 Z" style="text-transform: uppercase; white-space: pre; fill: rgb(255, 255, 255);"/>
    <path d="M 176.536 668.931 L 188.502 668.931 L 188.502 672.92 L 180.924 672.92 L 180.924 680.299 L 186.947 680.299 L 186.947 684.288 L 180.924 684.288 L 180.924 692.864 L 188.502 692.864 L 188.502 696.853 L 176.536 696.853 L 176.536 668.931 Z" style="text-transform: uppercase; white-space: pre; fill: rgb(255, 255, 255);"/>
    <path d="M 197.958 668.931 L 203.463 668.931 L 207.73 685.645 L 207.812 685.645 L 207.812 668.931 L 211.719 668.931 L 211.719 696.853 L 207.212 696.853 L 201.947 676.469 L 201.868 676.469 L 201.868 696.853 L 197.958 696.853 L 197.958 668.931 Z" style="text-transform: uppercase; white-space: pre; fill: rgb(255, 255, 255);"/>
    <path d="M 220.837 668.931 L 225.266 668.931 L 228.137 690.591 L 228.217 690.591 L 231.089 668.931 L 235.118 668.931 L 230.89 696.853 L 225.065 696.853 L 220.837 668.931 Z" style="text-transform: uppercase; white-space: pre; fill: rgb(255, 255, 255);"/>
    <path d="M 250.463 697.252 C 248.309 697.252 246.66 696.641 245.516 695.417 C 244.373 694.194 243.802 692.465 243.802 690.231 L 243.802 675.552 C 243.802 673.318 244.373 671.591 245.516 670.367 C 246.66 669.144 248.309 668.533 250.463 668.533 C 252.617 668.533 254.266 669.144 255.409 670.367 C 256.553 671.591 257.124 673.318 257.124 675.552 L 257.124 690.231 C 257.124 692.465 256.553 694.194 255.409 695.417 C 254.266 696.641 252.617 697.252 250.463 697.252 Z M 250.463 693.263 C 251.979 693.263 252.737 692.346 252.737 690.512 L 252.737 675.273 C 252.737 673.438 251.979 672.522 250.463 672.522 C 248.947 672.522 248.189 673.438 248.189 675.273 L 248.189 690.512 C 248.189 692.346 248.947 693.263 250.463 693.263 Z" style="text-transform: uppercase; white-space: pre; fill: rgb(255, 255, 255);"/>
    <path d="M 267.064 668.931 L 271.452 668.931 L 271.452 692.864 L 278.673 692.864 L 278.673 696.853 L 267.064 696.853 L 267.064 668.931 Z" style="text-transform: uppercase; white-space: pre; fill: rgb(255, 255, 255);"/>
    <path d="M 284.763 668.931 L 289.19 668.931 L 292.063 690.591 L 292.142 690.591 L 295.015 668.931 L 299.043 668.931 L 294.815 696.853 L 288.991 696.853 L 284.763 668.931 Z" style="text-transform: uppercase; white-space: pre; fill: rgb(255, 255, 255);"/>
    <path d="M 308.16 668.931 L 312.548 668.931 L 312.548 696.853 L 308.16 696.853 L 308.16 668.931 Z" style="text-transform: uppercase; white-space: pre; fill: rgb(255, 255, 255);"/>
    <path d="M 322.808 668.931 L 329.07 668.931 L 331.863 688.915 L 331.942 688.915 L 334.734 668.931 L 340.998 668.931 L 340.998 696.853 L 336.848 696.853 L 336.848 675.711 L 336.77 675.711 L 333.578 696.853 L 329.908 696.853 L 326.717 675.711 L 326.637 675.711 L 326.637 696.853 L 322.808 696.853 L 322.808 668.931 Z" style="text-transform: uppercase; white-space: pre; fill: rgb(255, 255, 255);"/>
    <path d="M 351.245 668.931 L 363.213 668.931 L 363.213 672.92 L 355.634 672.92 L 355.634 680.299 L 361.658 680.299 L 361.658 684.288 L 355.634 684.288 L 355.634 692.864 L 363.213 692.864 L 363.213 696.853 L 351.245 696.853 L 351.245 668.931 Z" style="text-transform: uppercase; white-space: pre; fill: rgb(255, 255, 255);"/>
    <path d="M 372.709 668.931 L 378.213 668.931 L 382.483 685.645 L 382.562 685.645 L 382.562 668.931 L 386.472 668.931 L 386.472 696.853 L 381.964 696.853 L 376.698 676.469 L 376.618 676.469 L 376.618 696.853 L 372.709 696.853 L 372.709 668.931 Z" style="text-transform: uppercase; white-space: pre; fill: rgb(255, 255, 255);"/>
    <path d="M 400.136 672.92 L 395.548 672.92 L 395.548 668.931 L 409.111 668.931 L 409.111 672.92 L 404.523 672.92 L 404.523 696.853 L 400.136 696.853 L 400.136 672.92 Z" style="text-transform: uppercase; white-space: pre; fill: rgb(255, 255, 255);"/>
    <path d="M 424.397 697.252 C 422.242 697.252 420.594 696.641 419.45 695.417 C 418.307 694.194 417.734 692.465 417.734 690.231 L 417.734 675.552 C 417.734 673.318 418.307 671.591 419.45 670.367 C 420.594 669.144 422.242 668.533 424.397 668.533 C 426.551 668.533 428.198 669.144 429.342 670.367 C 430.486 671.591 431.058 673.318 431.058 675.552 L 431.058 690.231 C 431.058 692.465 430.486 694.194 429.342 695.417 C 428.198 696.641 426.551 697.252 424.397 697.252 Z M 424.397 693.263 C 425.913 693.263 426.67 692.346 426.67 690.512 L 426.67 675.273 C 426.67 673.438 425.913 672.522 424.397 672.522 C 422.881 672.522 422.122 673.438 422.122 675.273 L 422.122 690.512 C 422.122 692.346 422.881 693.263 424.397 693.263 Z" style="text-transform: uppercase; white-space: pre; fill: rgb(255, 255, 255);"/>
    <path d="M 456.073 668.931 L 462.776 668.931 C 464.956 668.931 466.591 669.517 467.681 670.685 C 468.772 671.855 469.318 673.571 469.318 675.831 L 469.318 689.952 C 469.318 692.213 468.772 693.928 467.681 695.098 C 466.591 696.268 464.956 696.853 462.776 696.853 L 456.073 696.853 L 456.073 668.931 Z M 462.695 692.864 C 463.414 692.864 463.966 692.652 464.351 692.226 C 464.735 691.8 464.929 691.109 464.929 690.152 L 464.929 675.632 C 464.929 674.674 464.735 673.982 464.351 673.559 C 463.966 673.132 463.414 672.92 462.695 672.92 L 460.462 672.92 L 460.462 692.864 L 462.695 692.864 Z" style="text-transform: uppercase; white-space: pre; fill: rgb(255, 255, 255);"/>
    <path d="M 479.25 668.931 L 491.216 668.931 L 491.216 672.92 L 483.637 672.92 L 483.637 680.299 L 489.66 680.299 L 489.66 684.288 L 483.637 684.288 L 483.637 692.864 L 491.216 692.864 L 491.216 696.853 L 479.25 696.853 L 479.25 668.931 Z" style="text-transform: uppercase; white-space: pre; fill: rgb(255, 255, 255);"/>
    <path d="M 521.532 697.252 C 519.405 697.252 517.797 696.647 516.705 695.437 C 515.615 694.227 515.07 692.492 515.07 690.231 L 515.07 688.636 L 519.218 688.636 L 519.218 690.551 C 519.218 692.359 519.977 693.263 521.493 693.263 C 522.237 693.263 522.803 693.044 523.187 692.605 C 523.573 692.166 523.766 691.454 523.766 690.47 C 523.766 689.301 523.5 688.27 522.968 687.379 C 522.436 686.489 521.452 685.418 520.016 684.168 C 518.207 682.573 516.945 681.13 516.227 679.841 C 515.509 678.551 515.149 677.095 515.149 675.473 C 515.149 673.266 515.708 671.557 516.825 670.347 C 517.942 669.137 519.564 668.533 521.691 668.533 C 523.793 668.533 525.382 669.137 526.458 670.347 C 527.536 671.557 528.074 673.291 528.074 675.552 L 528.074 676.709 L 523.926 676.709 L 523.926 675.273 C 523.926 674.316 523.739 673.618 523.367 673.179 C 522.995 672.74 522.45 672.522 521.732 672.522 C 520.27 672.522 519.537 673.411 519.537 675.193 C 519.537 676.204 519.81 677.148 520.356 678.025 C 520.9 678.902 521.892 679.966 523.328 681.216 C 525.161 682.812 526.425 684.262 527.116 685.565 C 527.809 686.868 528.154 688.396 528.154 690.152 C 528.154 692.438 527.589 694.194 526.458 695.417 C 525.329 696.641 523.686 697.252 521.532 697.252 Z" style="text-transform: uppercase; white-space: pre; fill: rgb(255, 255, 255);"/>
    <path d="M 537.642 668.931 L 542.031 668.931 L 542.031 696.853 L 537.642 696.853 L 537.642 668.931 Z" style="text-transform: uppercase; white-space: pre; fill: rgb(255, 255, 255);"/>
    <path d="M 555.719 672.92 L 551.132 672.92 L 551.132 668.931 L 564.695 668.931 L 564.695 672.92 L 560.107 672.92 L 560.107 696.853 L 555.719 696.853 L 555.719 672.92 Z" style="text-transform: uppercase; white-space: pre; fill: rgb(255, 255, 255);"/>
    <path d="M 573.793 668.931 L 585.76 668.931 L 585.76 672.92 L 578.18 672.92 L 578.18 680.299 L 584.203 680.299 L 584.203 684.288 L 578.18 684.288 L 578.18 692.864 L 585.76 692.864 L 585.76 696.853 L 573.793 696.853 L 573.793 668.931 Z" style="text-transform: uppercase; white-space: pre; fill: rgb(255, 255, 255);"/>
    <path d="M 601.039 697.252 C 598.913 697.252 597.303 696.647 596.212 695.437 C 595.122 694.227 594.578 692.492 594.578 690.231 L 594.578 688.636 L 598.726 688.636 L 598.726 690.551 C 598.726 692.359 599.484 693.263 601 693.263 C 601.745 693.263 602.309 693.044 602.695 692.605 C 603.08 692.166 603.273 691.454 603.273 690.47 C 603.273 689.301 603.007 688.27 602.475 687.379 C 601.943 686.489 600.959 685.418 599.523 684.168 C 597.714 682.573 596.452 681.13 595.734 679.841 C 595.016 678.551 594.657 677.095 594.657 675.473 C 594.657 673.266 595.216 671.557 596.332 670.347 C 597.45 669.137 599.071 668.533 601.198 668.533 C 603.3 668.533 604.889 669.137 605.966 670.347 C 607.043 671.557 607.581 673.291 607.581 675.552 L 607.581 676.709 L 603.434 676.709 L 603.434 675.273 C 603.434 674.316 603.247 673.618 602.874 673.179 C 602.502 672.74 601.957 672.522 601.238 672.522 C 599.777 672.522 599.044 673.411 599.044 675.193 C 599.044 676.204 599.318 677.148 599.863 678.025 C 600.408 678.902 601.399 679.966 602.835 681.216 C 604.669 682.812 605.932 684.262 606.623 685.565 C 607.315 686.868 607.66 688.396 607.66 690.152 C 607.66 692.438 607.096 694.194 605.966 695.417 C 604.836 696.641 603.193 697.252 601.039 697.252 Z" style="text-transform: uppercase; white-space: pre; fill: rgb(255, 255, 255);"/>
  </g>
  <path d="M 343.153 726.833 L 350.618 719.519 L 335.181 704.077 L 350.288 688.973 L 342.81 681.667 L 320.4 704.077 L 343.153 726.833 Z M 376.689 726.833 L 399.429 704.077 L 376.689 681.337 L 369.208 688.645 L 384.653 704.077 L 369.208 719.519 L 376.689 726.833 Z M 311.603 768 C 307.292 768 303.614 766.477 300.56 763.44 C 297.521 760.387 296 756.708 296 752.397 L 296 655.775 C 296 651.456 297.521 647.744 300.56 644.647 C 303.614 641.549 307.292 640 311.603 640 L 408.218 640 C 412.544 640 416.254 641.549 419.354 644.647 C 422.448 647.744 424 651.456 424 655.775 L 424 752.397 C 424 756.708 422.448 760.387 419.354 763.44 C 416.254 766.477 412.544 768 408.218 768 L 311.603 768 Z" style="fill: rgb(255, 255, 255);" bx:origin="0.5 0.5">
    <title>Logo</title>
  </path>
</svg>