<?xml version="1.0" encoding="utf-8"?>
<svg viewBox="0 0 1280 720" xmlns="http://www.w3.org/2000/svg" xmlns:bx="https://boxy-svg.com">
  <defs>
    <bx:guide x="640" y="360" angle="0"/>
    <bx:guide x="640" y="360" angle="90"/>
  </defs>
  <rect width="1280" height="720" style="stroke: rgb(0, 80, 128); stroke-width: 0px; fill: rgb(0, 80, 128);">
    <title>Fundo</title>
  </rect>
  <g transform="matrix(3.828337, 0, 0, 3.828337, -1300.224121, -506.345032)">
    <title>Logo</title>
    <path d="M 394.62 260.217 L 397.536 257.36 L 391.506 251.328 L 397.407 245.428 L 394.486 242.574 L 385.732 251.328 L 394.62 260.217 Z M 407.72 260.217 L 416.603 251.328 L 407.72 242.445 L 404.798 245.3 L 410.831 251.328 L 404.798 257.36 L 407.72 260.217 Z M 382.296 276.298 C 380.612 276.298 379.175 275.703 377.982 274.517 C 376.795 273.324 376.201 271.887 376.201 270.203 L 376.201 232.46 C 376.201 230.773 376.795 229.323 377.982 228.113 C 379.175 226.903 380.612 226.298 382.296 226.298 L 420.036 226.298 C 421.726 226.298 423.175 226.903 424.386 228.113 C 425.595 229.323 426.201 230.773 426.201 232.46 L 426.201 270.203 C 426.201 271.887 425.595 273.324 424.386 274.517 C 423.175 275.703 421.726 276.298 420.036 276.298 L 382.296 276.298 Z" style="fill: rgb(255, 255, 255);" bx:origin="0.5 0.5">
      <title>Logo</title>
    </path>
    <path d="M 437.595 228.09 L 447.489 228.09 L 447.489 231.49 L 441.335 231.49 L 441.335 238.12 L 446.163 238.12 L 446.163 241.52 L 441.335 241.52 L 441.335 251.89 L 437.595 251.89 L 437.595 228.09 Z" style="text-transform: uppercase; white-space: pre; fill: rgb(255, 255, 255);"/>
    <path d="M 449.283 228.09 L 454.825 228.09 C 456.752 228.09 458.157 228.538 459.041 229.433 C 459.925 230.328 460.367 231.705 460.367 233.564 L 460.367 235.026 C 460.367 237.497 459.551 239.061 457.919 239.718 L 457.919 239.786 C 458.826 240.058 459.466 240.613 459.84 241.452 C 460.214 242.291 460.401 243.413 460.401 244.818 L 460.401 249 C 460.401 249.68 460.424 250.23 460.469 250.649 C 460.514 251.068 460.628 251.482 460.809 251.89 L 457.001 251.89 C 456.865 251.505 456.774 251.142 456.729 250.802 C 456.684 250.462 456.661 249.85 456.661 248.966 L 456.661 244.614 C 456.661 243.526 456.485 242.767 456.134 242.336 C 455.783 241.905 455.176 241.69 454.315 241.69 L 453.023 241.69 L 453.023 251.89 L 449.283 251.89 L 449.283 228.09 Z M 454.383 238.29 C 455.131 238.29 455.692 238.097 456.066 237.712 C 456.44 237.327 456.627 236.681 456.627 235.774 L 456.627 233.938 C 456.627 233.077 456.474 232.453 456.168 232.068 C 455.862 231.683 455.38 231.49 454.723 231.49 L 453.023 231.49 L 453.023 238.29 L 454.383 238.29 Z" style="text-transform: uppercase; white-space: pre; fill: rgb(255, 255, 255);"/>
    <path d="M 462.986 228.09 L 473.186 228.09 L 473.186 231.49 L 466.726 231.49 L 466.726 237.78 L 471.86 237.78 L 471.86 241.18 L 466.726 241.18 L 466.726 248.49 L 473.186 248.49 L 473.186 251.89 L 462.986 251.89 L 462.986 228.09 Z" style="text-transform: uppercase; white-space: pre; fill: rgb(255, 255, 255);"/>
    <path d="M 475.329 228.09 L 481.041 228.09 C 482.9 228.09 484.294 228.589 485.223 229.586 C 486.152 230.583 486.617 232.045 486.617 233.972 L 486.617 246.008 C 486.617 247.935 486.152 249.397 485.223 250.394 C 484.294 251.391 482.9 251.89 481.041 251.89 L 475.329 251.89 L 475.329 228.09 Z M 480.973 248.49 C 481.585 248.49 482.055 248.309 482.384 247.946 C 482.713 247.583 482.877 246.994 482.877 246.178 L 482.877 233.802 C 482.877 232.986 482.713 232.397 482.384 232.034 C 482.055 231.671 481.585 231.49 480.973 231.49 L 479.069 231.49 L 479.069 248.49 L 480.973 248.49 Z" style="text-transform: uppercase; white-space: pre; fill: rgb(255, 255, 255);"/>
    <path d="M 489.126 228.09 L 499.326 228.09 L 499.326 231.49 L 492.866 231.49 L 492.866 237.78 L 498 237.78 L 498 241.18 L 492.866 241.18 L 492.866 248.49 L 499.326 248.49 L 499.326 251.89 L 489.126 251.89 L 489.126 228.09 Z" style="text-transform: uppercase; white-space: pre; fill: rgb(255, 255, 255);"/>
    <path d="M 501.47 228.09 L 507.012 228.09 C 508.939 228.09 510.344 228.538 511.228 229.433 C 512.112 230.328 512.554 231.705 512.554 233.564 L 512.554 235.026 C 512.554 237.497 511.738 239.061 510.106 239.718 L 510.106 239.786 C 511.013 240.058 511.653 240.613 512.027 241.452 C 512.401 242.291 512.588 243.413 512.588 244.818 L 512.588 249 C 512.588 249.68 512.611 250.23 512.656 250.649 C 512.701 251.068 512.815 251.482 512.996 251.89 L 509.188 251.89 C 509.052 251.505 508.961 251.142 508.916 250.802 C 508.871 250.462 508.848 249.85 508.848 248.966 L 508.848 244.614 C 508.848 243.526 508.672 242.767 508.321 242.336 C 507.97 241.905 507.363 241.69 506.502 241.69 L 505.21 241.69 L 505.21 251.89 L 501.47 251.89 L 501.47 228.09 Z M 506.57 238.29 C 507.318 238.29 507.879 238.097 508.253 237.712 C 508.627 237.327 508.814 236.681 508.814 235.774 L 508.814 233.938 C 508.814 233.077 508.661 232.453 508.355 232.068 C 508.049 231.683 507.567 231.49 506.91 231.49 L 505.21 231.49 L 505.21 238.29 L 506.57 238.29 Z" style="text-transform: uppercase; white-space: pre; fill: rgb(255, 255, 255);"/>
    <path d="M 515.173 228.09 L 518.913 228.09 L 518.913 251.89 L 515.173 251.89 L 515.173 228.09 Z" style="text-transform: uppercase; white-space: pre; fill: rgb(255, 255, 255);"/>
    <path d="M 526.974 252.23 C 525.183 252.23 523.818 251.72 522.877 250.7 C 521.936 249.68 521.466 248.241 521.466 246.382 L 521.466 233.598 C 521.466 231.739 521.936 230.3 522.877 229.28 C 523.818 228.26 525.183 227.75 526.974 227.75 C 528.765 227.75 530.13 228.26 531.071 229.28 C 532.012 230.3 532.482 231.739 532.482 233.598 L 532.482 236.114 L 528.946 236.114 L 528.946 233.36 C 528.946 231.887 528.323 231.15 527.076 231.15 C 525.829 231.15 525.206 231.887 525.206 233.36 L 525.206 246.654 C 525.206 248.105 525.829 248.83 527.076 248.83 C 528.323 248.83 528.946 248.105 528.946 246.654 L 528.946 243.016 L 532.482 243.016 L 532.482 246.382 C 532.482 248.241 532.012 249.68 531.071 250.7 C 530.13 251.72 528.765 252.23 526.974 252.23 Z" style="text-transform: uppercase; white-space: pre; fill: rgb(255, 255, 255);"/>
    <path d="M 540.204 252.23 C 538.368 252.23 536.963 251.709 535.988 250.666 C 535.013 249.623 534.526 248.15 534.526 246.246 L 534.526 233.734 C 534.526 231.83 535.013 230.357 535.988 229.314 C 536.963 228.271 538.368 227.75 540.204 227.75 C 542.04 227.75 543.445 228.271 544.42 229.314 C 545.395 230.357 545.882 231.83 545.882 233.734 L 545.882 246.246 C 545.882 248.15 545.395 249.623 544.42 250.666 C 543.445 251.709 542.04 252.23 540.204 252.23 Z M 540.204 248.83 C 541.496 248.83 542.142 248.048 542.142 246.484 L 542.142 233.496 C 542.142 231.932 541.496 231.15 540.204 231.15 C 538.912 231.15 538.266 231.932 538.266 233.496 L 538.266 246.484 C 538.266 248.048 538.912 248.83 540.204 248.83 Z" style="text-transform: uppercase; white-space: pre; fill: rgb(255, 255, 255);"/>
    <path d="M 553.829 228.09 L 559.337 228.09 C 561.196 228.09 562.59 228.589 563.519 229.586 C 564.448 230.583 564.913 232.045 564.913 233.972 L 564.913 236.318 C 564.913 238.245 564.448 239.707 563.519 240.704 C 562.59 241.701 561.196 242.2 559.337 242.2 L 557.569 242.2 L 557.569 251.89 L 553.829 251.89 L 553.829 228.09 Z M 559.337 238.8 C 559.949 238.8 560.408 238.63 560.714 238.29 C 561.02 237.95 561.173 237.372 561.173 236.556 L 561.173 233.734 C 561.173 232.918 561.02 232.34 560.714 232 C 560.408 231.66 559.949 231.49 559.337 231.49 L 557.569 231.49 L 557.569 238.8 L 559.337 238.8 Z" style="text-transform: uppercase; white-space: pre; fill: rgb(255, 255, 255);"/>
    <path d="M 566.954 228.09 L 577.154 228.09 L 577.154 231.49 L 570.694 231.49 L 570.694 237.78 L 575.828 237.78 L 575.828 241.18 L 570.694 241.18 L 570.694 248.49 L 577.154 248.49 L 577.154 251.89 L 566.954 251.89 L 566.954 228.09 Z" style="text-transform: uppercase; white-space: pre; fill: rgb(255, 255, 255);"/>
    <path d="M 579.298 228.09 L 584.84 228.09 C 586.767 228.09 588.172 228.538 589.056 229.433 C 589.94 230.328 590.382 231.705 590.382 233.564 L 590.382 235.026 C 590.382 237.497 589.566 239.061 587.934 239.718 L 587.934 239.786 C 588.841 240.058 589.481 240.613 589.855 241.452 C 590.229 242.291 590.416 243.413 590.416 244.818 L 590.416 249 C 590.416 249.68 590.439 250.23 590.484 250.649 C 590.529 251.068 590.643 251.482 590.824 251.89 L 587.016 251.89 C 586.88 251.505 586.789 251.142 586.744 250.802 C 586.699 250.462 586.676 249.85 586.676 248.966 L 586.676 244.614 C 586.676 243.526 586.5 242.767 586.149 242.336 C 585.798 241.905 585.191 241.69 584.33 241.69 L 583.038 241.69 L 583.038 251.89 L 579.298 251.89 L 579.298 228.09 Z M 584.398 238.29 C 585.146 238.29 585.707 238.097 586.081 237.712 C 586.455 237.327 586.642 236.681 586.642 235.774 L 586.642 233.938 C 586.642 233.077 586.489 232.453 586.183 232.068 C 585.877 231.683 585.395 231.49 584.738 231.49 L 583.038 231.49 L 583.038 238.29 L 584.398 238.29 Z" style="text-transform: uppercase; white-space: pre; fill: rgb(255, 255, 255);"/>
    <path d="M 593.001 228.09 L 603.201 228.09 L 603.201 231.49 L 596.741 231.49 L 596.741 237.78 L 601.875 237.78 L 601.875 241.18 L 596.741 241.18 L 596.741 248.49 L 603.201 248.49 L 603.201 251.89 L 593.001 251.89 L 593.001 228.09 Z" style="text-transform: uppercase; white-space: pre; fill: rgb(255, 255, 255);"/>
    <path d="M 605.345 228.09 L 609.085 228.09 L 609.085 251.89 L 605.345 251.89 L 605.345 228.09 Z" style="text-transform: uppercase; white-space: pre; fill: rgb(255, 255, 255);"/>
    <path d="M 611.876 228.09 L 617.418 228.09 C 619.345 228.09 620.75 228.538 621.634 229.433 C 622.518 230.328 622.96 231.705 622.96 233.564 L 622.96 235.026 C 622.96 237.497 622.144 239.061 620.512 239.718 L 620.512 239.786 C 621.419 240.058 622.059 240.613 622.433 241.452 C 622.807 242.291 622.994 243.413 622.994 244.818 L 622.994 249 C 622.994 249.68 623.017 250.23 623.062 250.649 C 623.107 251.068 623.221 251.482 623.402 251.89 L 619.594 251.89 C 619.458 251.505 619.367 251.142 619.322 250.802 C 619.277 250.462 619.254 249.85 619.254 248.966 L 619.254 244.614 C 619.254 243.526 619.078 242.767 618.727 242.336 C 618.376 241.905 617.769 241.69 616.908 241.69 L 615.616 241.69 L 615.616 251.89 L 611.876 251.89 L 611.876 228.09 Z M 616.976 238.29 C 617.724 238.29 618.285 238.097 618.659 237.712 C 619.033 237.327 619.22 236.681 619.22 235.774 L 619.22 233.938 C 619.22 233.077 619.067 232.453 618.761 232.068 C 618.455 231.683 617.973 231.49 617.316 231.49 L 615.616 231.49 L 615.616 238.29 L 616.976 238.29 Z" style="text-transform: uppercase; white-space: pre; fill: rgb(255, 255, 255);"/>
    <path d="M 628.469 228.09 L 633.535 228.09 L 637.411 251.89 L 633.671 251.89 L 632.991 247.164 L 632.991 247.232 L 628.741 247.232 L 628.061 251.89 L 624.593 251.89 L 628.469 228.09 Z M 632.549 244.002 L 630.883 232.238 L 630.815 232.238 L 629.183 244.002 L 632.549 244.002 Z" style="text-transform: uppercase; white-space: pre; fill: rgb(255, 255, 255);"/>
    <path d="M 436.857 262.319 L 439.545 262.319 C 440.42 262.319 441.076 262.554 441.513 263.023 C 441.95 263.492 442.169 264.18 442.169 265.087 L 442.169 270.751 C 442.169 271.658 441.95 272.346 441.513 272.815 C 441.076 273.284 440.42 273.519 439.545 273.519 L 436.857 273.519 L 436.857 262.319 Z M 439.513 271.919 C 439.801 271.919 440.022 271.834 440.177 271.663 C 440.332 271.492 440.409 271.215 440.409 270.831 L 440.409 265.007 C 440.409 264.623 440.332 264.346 440.177 264.175 C 440.022 264.004 439.801 263.919 439.513 263.919 L 438.617 263.919 L 438.617 271.919 L 439.513 271.919 Z" style="text-transform: uppercase; white-space: pre; fill: rgb(255, 255, 255);"/>
    <path d="M 446.138 262.319 L 450.938 262.319 L 450.938 263.919 L 447.898 263.919 L 447.898 266.879 L 450.314 266.879 L 450.314 268.479 L 447.898 268.479 L 447.898 271.919 L 450.938 271.919 L 450.938 273.519 L 446.138 273.519 L 446.138 262.319 Z" style="text-transform: uppercase; white-space: pre; fill: rgb(255, 255, 255);"/>
    <path d="M 457.067 273.679 C 456.214 273.679 455.568 273.436 455.131 272.951 C 454.694 272.466 454.475 271.77 454.475 270.863 L 454.475 270.223 L 456.139 270.223 L 456.139 270.991 C 456.139 271.716 456.443 272.079 457.051 272.079 C 457.35 272.079 457.576 271.991 457.731 271.815 C 457.886 271.639 457.963 271.354 457.963 270.959 C 457.963 270.49 457.856 270.076 457.643 269.719 C 457.43 269.362 457.035 268.932 456.459 268.431 C 455.734 267.791 455.227 267.212 454.939 266.695 C 454.651 266.178 454.507 265.594 454.507 264.943 C 454.507 264.058 454.731 263.372 455.179 262.887 C 455.627 262.402 456.278 262.159 457.131 262.159 C 457.974 262.159 458.611 262.402 459.043 262.887 C 459.475 263.372 459.691 264.068 459.691 264.975 L 459.691 265.439 L 458.027 265.439 L 458.027 264.863 C 458.027 264.479 457.952 264.199 457.803 264.023 C 457.654 263.847 457.435 263.759 457.147 263.759 C 456.56 263.759 456.267 264.116 456.267 264.831 C 456.267 265.236 456.376 265.615 456.595 265.967 C 456.814 266.319 457.211 266.746 457.787 267.247 C 458.523 267.887 459.03 268.468 459.307 268.991 C 459.584 269.514 459.723 270.127 459.723 270.831 C 459.723 271.748 459.496 272.452 459.043 272.943 C 458.59 273.434 457.931 273.679 457.067 273.679 Z" style="text-transform: uppercase; white-space: pre; fill: rgb(255, 255, 255);"/>
    <path d="M 463.545 262.319 L 468.345 262.319 L 468.345 263.919 L 465.305 263.919 L 465.305 266.879 L 467.721 266.879 L 467.721 268.479 L 465.305 268.479 L 465.305 271.919 L 468.345 271.919 L 468.345 273.519 L 463.545 273.519 L 463.545 262.319 Z" style="text-transform: uppercase; white-space: pre; fill: rgb(255, 255, 255);"/>
    <path d="M 472.138 262.319 L 474.346 262.319 L 476.058 269.023 L 476.09 269.023 L 476.09 262.319 L 477.658 262.319 L 477.658 273.519 L 475.85 273.519 L 473.738 265.343 L 473.706 265.343 L 473.706 273.519 L 472.138 273.519 L 472.138 262.319 Z" style="text-transform: uppercase; white-space: pre; fill: rgb(255, 255, 255);"/>
    <path d="M 481.315 262.319 L 483.091 262.319 L 484.243 271.007 L 484.275 271.007 L 485.427 262.319 L 487.043 262.319 L 485.347 273.519 L 483.011 273.519 L 481.315 262.319 Z" style="text-transform: uppercase; white-space: pre; fill: rgb(255, 255, 255);"/>
    <path d="M 493.198 273.679 C 492.334 273.679 491.673 273.434 491.214 272.943 C 490.755 272.452 490.526 271.759 490.526 270.863 L 490.526 264.975 C 490.526 264.079 490.755 263.386 491.214 262.895 C 491.673 262.404 492.334 262.159 493.198 262.159 C 494.062 262.159 494.723 262.404 495.182 262.895 C 495.641 263.386 495.87 264.079 495.87 264.975 L 495.87 270.863 C 495.87 271.759 495.641 272.452 495.182 272.943 C 494.723 273.434 494.062 273.679 493.198 273.679 Z M 493.198 272.079 C 493.806 272.079 494.11 271.711 494.11 270.975 L 494.11 264.863 C 494.11 264.127 493.806 263.759 493.198 263.759 C 492.59 263.759 492.286 264.127 492.286 264.863 L 492.286 270.975 C 492.286 271.711 492.59 272.079 493.198 272.079 Z" style="text-transform: uppercase; white-space: pre; fill: rgb(255, 255, 255);"/>
    <path d="M 499.857 262.319 L 501.617 262.319 L 501.617 271.919 L 504.513 271.919 L 504.513 273.519 L 499.857 273.519 L 499.857 262.319 Z" style="text-transform: uppercase; white-space: pre; fill: rgb(255, 255, 255);"/>
    <path d="M 506.956 262.319 L 508.732 262.319 L 509.884 271.007 L 509.916 271.007 L 511.068 262.319 L 512.684 262.319 L 510.988 273.519 L 508.652 273.519 L 506.956 262.319 Z" style="text-transform: uppercase; white-space: pre; fill: rgb(255, 255, 255);"/>
    <path d="M 516.341 262.319 L 518.101 262.319 L 518.101 273.519 L 516.341 273.519 L 516.341 262.319 Z" style="text-transform: uppercase; white-space: pre; fill: rgb(255, 255, 255);"/>
    <path d="M 522.216 262.319 L 524.728 262.319 L 525.848 270.335 L 525.88 270.335 L 527 262.319 L 529.512 262.319 L 529.512 273.519 L 527.848 273.519 L 527.848 265.039 L 527.816 265.039 L 526.536 273.519 L 525.064 273.519 L 523.784 265.039 L 523.752 265.039 L 523.752 273.519 L 522.216 273.519 L 522.216 262.319 Z" style="text-transform: uppercase; white-space: pre; fill: rgb(255, 255, 255);"/>
    <path d="M 533.623 262.319 L 538.423 262.319 L 538.423 263.919 L 535.383 263.919 L 535.383 266.879 L 537.799 266.879 L 537.799 268.479 L 535.383 268.479 L 535.383 271.919 L 538.423 271.919 L 538.423 273.519 L 533.623 273.519 L 533.623 262.319 Z" style="text-transform: uppercase; white-space: pre; fill: rgb(255, 255, 255);"/>
    <path d="M 542.232 262.319 L 544.44 262.319 L 546.152 269.023 L 546.184 269.023 L 546.184 262.319 L 547.752 262.319 L 547.752 273.519 L 545.944 273.519 L 543.832 265.343 L 543.8 265.343 L 543.8 273.519 L 542.232 273.519 L 542.232 262.319 Z" style="text-transform: uppercase; white-space: pre; fill: rgb(255, 255, 255);"/>
    <path d="M 553.233 263.919 L 551.393 263.919 L 551.393 262.319 L 556.833 262.319 L 556.833 263.919 L 554.993 263.919 L 554.993 273.519 L 553.233 273.519 L 553.233 263.919 Z" style="text-transform: uppercase; white-space: pre; fill: rgb(255, 255, 255);"/>
    <path d="M 562.964 273.679 C 562.1 273.679 561.439 273.434 560.98 272.943 C 560.521 272.452 560.292 271.759 560.292 270.863 L 560.292 264.975 C 560.292 264.079 560.521 263.386 560.98 262.895 C 561.439 262.404 562.1 262.159 562.964 262.159 C 563.828 262.159 564.489 262.404 564.948 262.895 C 565.407 263.386 565.636 264.079 565.636 264.975 L 565.636 270.863 C 565.636 271.759 565.407 272.452 564.948 272.943 C 564.489 273.434 563.828 273.679 562.964 273.679 Z M 562.964 272.079 C 563.572 272.079 563.876 271.711 563.876 270.975 L 563.876 264.863 C 563.876 264.127 563.572 263.759 562.964 263.759 C 562.356 263.759 562.052 264.127 562.052 264.863 L 562.052 270.975 C 562.052 271.711 562.356 272.079 562.964 272.079 Z" style="text-transform: uppercase; white-space: pre; fill: rgb(255, 255, 255);"/>
    <path d="M 575.67 262.319 L 578.358 262.319 C 579.233 262.319 579.889 262.554 580.326 263.023 C 580.763 263.492 580.982 264.18 580.982 265.087 L 580.982 270.751 C 580.982 271.658 580.763 272.346 580.326 272.815 C 579.889 273.284 579.233 273.519 578.358 273.519 L 575.67 273.519 L 575.67 262.319 Z M 578.326 271.919 C 578.614 271.919 578.835 271.834 578.99 271.663 C 579.145 271.492 579.222 271.215 579.222 270.831 L 579.222 265.007 C 579.222 264.623 579.145 264.346 578.99 264.175 C 578.835 264.004 578.614 263.919 578.326 263.919 L 577.43 263.919 L 577.43 271.919 L 578.326 271.919 Z" style="text-transform: uppercase; white-space: pre; fill: rgb(255, 255, 255);"/>
    <path d="M 584.966 262.319 L 589.766 262.319 L 589.766 263.919 L 586.726 263.919 L 586.726 266.879 L 589.142 266.879 L 589.142 268.479 L 586.726 268.479 L 586.726 271.919 L 589.766 271.919 L 589.766 273.519 L 584.966 273.519 L 584.966 262.319 Z" style="text-transform: uppercase; white-space: pre; fill: rgb(255, 255, 255);"/>
    <path d="M 601.926 273.679 C 601.073 273.679 600.427 273.436 599.99 272.951 C 599.553 272.466 599.334 271.77 599.334 270.863 L 599.334 270.223 L 600.998 270.223 L 600.998 270.991 C 600.998 271.716 601.302 272.079 601.91 272.079 C 602.209 272.079 602.435 271.991 602.59 271.815 C 602.745 271.639 602.822 271.354 602.822 270.959 C 602.822 270.49 602.715 270.076 602.502 269.719 C 602.289 269.362 601.894 268.932 601.318 268.431 C 600.593 267.791 600.086 267.212 599.798 266.695 C 599.51 266.178 599.366 265.594 599.366 264.943 C 599.366 264.058 599.59 263.372 600.038 262.887 C 600.486 262.402 601.137 262.159 601.99 262.159 C 602.833 262.159 603.47 262.402 603.902 262.887 C 604.334 263.372 604.55 264.068 604.55 264.975 L 604.55 265.439 L 602.886 265.439 L 602.886 264.863 C 602.886 264.479 602.811 264.199 602.662 264.023 C 602.513 263.847 602.294 263.759 602.006 263.759 C 601.419 263.759 601.126 264.116 601.126 264.831 C 601.126 265.236 601.235 265.615 601.454 265.967 C 601.673 266.319 602.07 266.746 602.646 267.247 C 603.382 267.887 603.889 268.468 604.166 268.991 C 604.443 269.514 604.582 270.127 604.582 270.831 C 604.582 271.748 604.355 272.452 603.902 272.943 C 603.449 273.434 602.79 273.679 601.926 273.679 Z" style="text-transform: uppercase; white-space: pre; fill: rgb(255, 255, 255);"/>
    <path d="M 608.388 262.319 L 610.148 262.319 L 610.148 273.519 L 608.388 273.519 L 608.388 262.319 Z" style="text-transform: uppercase; white-space: pre; fill: rgb(255, 255, 255);"/>
    <path d="M 615.639 263.919 L 613.799 263.919 L 613.799 262.319 L 619.239 262.319 L 619.239 263.919 L 617.399 263.919 L 617.399 273.519 L 615.639 273.519 L 615.639 263.919 Z" style="text-transform: uppercase; white-space: pre; fill: rgb(255, 255, 255);"/>
    <path d="M 622.888 262.319 L 627.688 262.319 L 627.688 263.919 L 624.648 263.919 L 624.648 266.879 L 627.064 266.879 L 627.064 268.479 L 624.648 268.479 L 624.648 271.919 L 627.688 271.919 L 627.688 273.519 L 622.888 273.519 L 622.888 262.319 Z" style="text-transform: uppercase; white-space: pre; fill: rgb(255, 255, 255);"/>
    <path d="M 633.817 273.679 C 632.964 273.679 632.318 273.436 631.881 272.951 C 631.444 272.466 631.225 271.77 631.225 270.863 L 631.225 270.223 L 632.889 270.223 L 632.889 270.991 C 632.889 271.716 633.193 272.079 633.801 272.079 C 634.1 272.079 634.326 271.991 634.481 271.815 C 634.636 271.639 634.713 271.354 634.713 270.959 C 634.713 270.49 634.606 270.076 634.393 269.719 C 634.18 269.362 633.785 268.932 633.209 268.431 C 632.484 267.791 631.977 267.212 631.689 266.695 C 631.401 266.178 631.257 265.594 631.257 264.943 C 631.257 264.058 631.481 263.372 631.929 262.887 C 632.377 262.402 633.028 262.159 633.881 262.159 C 634.724 262.159 635.361 262.402 635.793 262.887 C 636.225 263.372 636.441 264.068 636.441 264.975 L 636.441 265.439 L 634.777 265.439 L 634.777 264.863 C 634.777 264.479 634.702 264.199 634.553 264.023 C 634.404 263.847 634.185 263.759 633.897 263.759 C 633.31 263.759 633.017 264.116 633.017 264.831 C 633.017 265.236 633.126 265.615 633.345 265.967 C 633.564 266.319 633.961 266.746 634.537 267.247 C 635.273 267.887 635.78 268.468 636.057 268.991 C 636.334 269.514 636.473 270.127 636.473 270.831 C 636.473 271.748 636.246 272.452 635.793 272.943 C 635.34 273.434 634.681 273.679 633.817 273.679 Z" style="text-transform: uppercase; white-space: pre; fill: rgb(255, 255, 255);"/>
  </g>
</svg>